<svg xmlns="http://www.w3.org/2000/svg" version="1.1" xmlns:xlink="http://www.w3.org/1999/xlink" xmlns:svgjs="http://svgjs.dev/svgjs" width="1440" height="560" preserveAspectRatio="none" viewBox="0 0 1440 560"><g mask="url(&quot;#SvgjsMask1006&quot;)" fill="none"><rect width="1440" height="560" x="0" y="0" fill="rgba(255, 255, 255, 1)"></rect><path d="M-62.6347614719375 113.86203930660164L96.21235922874774 168.5574892554039 150.90780917755 9.710368554718656-7.939311523135245-44.98508139408361z" fill="rgba(241, 107, 5, 0.4)" class="triangle-float1"></path><path d="M36.59490885700906-35.293776068488526L-19.769703154095794 148.4401119977817 144.5590937691835 113.51094794039807z" fill="rgba(241, 107, 5, 0.4)" class="triangle-float1"></path><path d="M139.16060892424764 13.627553357642299L-52.90093378175584 6.7373483896385125 23.36947017448803 156.42644445328432z" fill="rgba(241, 107, 5, 0.4)" class="triangle-float2"></path><path d="M1361.556,97.933C1383.078,97.176,1399.775,80.433,1409.274,61.106C1417.653,44.057,1415.041,24.612,1405.732,8.052C1396.2,-8.904,1380.997,-23.107,1361.556,-23.775C1341.062,-24.479,1322.465,-12.684,1311.793,4.826C1300.638,23.13,1297.544,45.776,1307.648,64.68C1318.315,84.637,1338.941,98.728,1361.556,97.933" fill="rgba(241, 107, 5, 0.4)" class="triangle-float3"></path><path d="M1409.142,183.704C1447.73,184.014,1487.57,170.981,1506.78,137.513C1525.923,104.162,1516.408,63.615,1497.19,30.308C1477.961,-3.019,1447.613,-32.322,1409.142,-31.708C1371.45,-31.106,1344.41,0.241,1325.833,33.043C1307.597,65.244,1296.275,103.583,1314.182,135.968C1332.557,169.198,1371.171,183.399,1409.142,183.704" fill="rgba(241, 107, 5, 0.4)" class="triangle-float1"></path><path d="M1350.503,75.046C1369.743,75.505,1388.321,66.556,1398.221,50.053C1408.402,33.082,1408.65,11.783,1398.725,-5.338C1388.829,-22.408,1370.195,-33.503,1350.503,-32.26C1332.5,-31.124,1320.455,-15.67,1311.783,0.148C1303.539,15.185,1298.697,32.632,1306.572,47.866C1315.048,64.261,1332.052,74.606,1350.503,75.046" fill="rgba(241, 107, 5, 0.4)" class="triangle-float1"></path><path d="M4.426122292584992 625.5004418117186L160.19300985980527 562.5665341178453 97.25910216593199 406.7996465506251-58.50778540128827 469.73355424449835z" fill="rgba(241, 107, 5, 0.4)" class="triangle-float2"></path><path d="M67.50397112036094 372.5090084048184L-61.19149532362735 480.497326832157 46.79682310371126 609.1927932761453 175.49228954769956 501.20447484880674z" fill="rgba(241, 107, 5, 0.4)" class="triangle-float1"></path><path d="M7.570471620910183 592.0878519993979L118.73564060473825 605.7372184607744 83.62710580488903 432.16478175434406z" fill="rgba(241, 107, 5, 0.4)" class="triangle-float3"></path><path d="M1395.097,598.272C1426.071,598.169,1456.029,585.994,1472.896,560.015C1491.412,531.496,1497.53,495.202,1481.478,465.226C1464.603,433.713,1430.842,414.401,1395.097,414.73C1359.892,415.054,1328.152,435.811,1311.43,466.792C1295.5,496.305,1298.391,532.24,1316.397,560.535C1333.138,586.842,1363.915,598.376,1395.097,598.272" fill="rgba(241, 107, 5, 0.4)" class="triangle-float1"></path><path d="M1254.891103723691 476.5570569264963L1346.3904616062155 617.4537123413274 1395.7877591385222 385.05769904397175z" fill="rgba(241, 107, 5, 0.4)" class="triangle-float2"></path><path d="M1256.5042956467855 469.8376289801191L1340.5042956467855 615.3298968159047 1485.9965634825712 531.3298968159047 1401.9965634825712 385.83762898011906z" fill="rgba(241, 107, 5, 0.4)" class="triangle-float1"></path></g><defs><mask id="SvgjsMask1006"><rect width="1440" height="560" fill="#ffffff"></rect></mask><style>
                @keyframes float1 {
                    0%{transform: translate(0, 0)}
                    50%{transform: translate(-10px, 0)}
                    100%{transform: translate(0, 0)}
                }

                .triangle-float1 {
                    animation: float1 5s infinite;
                }

                @keyframes float2 {
                    0%{transform: translate(0, 0)}
                    50%{transform: translate(-5px, -5px)}
                    100%{transform: translate(0, 0)}
                }

                .triangle-float2 {
                    animation: float2 4s infinite;
                }

                @keyframes float3 {
                    0%{transform: translate(0, 0)}
                    50%{transform: translate(0, -10px)}
                    100%{transform: translate(0, 0)}
                }

                .triangle-float3 {
                    animation: float3 6s infinite;
                }
            </style></defs></svg>